<svg width="56" height="36" viewBox="0 0 56 36" fill="none" xmlns="http://www.w3.org/2000/svg">
<path d="M2.56184 0.00020909C1.65093 -0.0104098 0.803639 0.384102 0.344411 1.03269C-0.114804 1.68127 -0.114804 2.48342 0.344411 3.13201C0.803627 3.78059 1.65092 4.1751 2.56184 4.16449H53.0792C53.9901 4.1751 54.8374 3.78059 55.2966 3.13201C55.7558 2.48342 55.7558 1.68127 55.2966 1.03269C54.8374 0.384102 53.9901 -0.0104098 53.0792 0.00020909H2.56184ZM2.56184 15.6162C1.65093 15.6056 0.803639 16.0001 0.344411 16.6487C-0.114804 17.2973 -0.114804 18.0994 0.344411 18.748C0.803627 19.3966 1.65092 19.7911 2.56184 19.7805H53.0792C53.9901 19.7911 54.8374 19.3966 55.2966 18.748C55.7558 18.0994 55.7558 17.2973 55.2966 16.6487C54.8374 16.0001 53.9901 15.6056 53.0792 15.6162H2.56184ZM2.56184 31.2322C1.65093 31.2216 0.803639 31.6161 0.344411 32.2647C-0.114804 32.9133 -0.114804 33.7154 0.344411 34.364C0.803627 35.0126 1.65092 35.4071 2.56184 35.3965H53.0792C53.9901 35.4071 54.8374 35.0126 55.2966 34.364C55.7558 33.7154 55.7558 32.9133 55.2966 32.2647C54.8374 31.6161 53.9901 31.2216 53.0792 31.2322H2.56184Z" fill="#8BC340"/>
</svg>
